<svg xmlns="http://www.w3.org/2000/svg" viewBox="0 0 640 640" role="img" aria-labelledby="title desc">
  <title id="title">Rodnam Flood Relief and Recovery logo</title>
  <desc id="desc">A teal and blue flood relief logo with a house, heart, hands, water and a drop.</desc>
  <defs>
    <linearGradient id="blueTeal" x1="130" y1="110" x2="520" y2="550" gradientUnits="userSpaceOnUse">
      <stop offset="0" stop-color="#0b79bd"/>
      <stop offset="0.55" stop-color="#34b6cf"/>
      <stop offset="1" stop-color="#5fc1a9"/>
    </linearGradient>
    <linearGradient id="deepBlue" x1="145" y1="540" x2="500" y2="540" gradientUnits="userSpaceOnUse">
      <stop offset="0" stop-color="#0369a1"/>
      <stop offset="1" stop-color="#0f7fb6"/>
    </linearGradient>
    <filter id="softShadow" x="-20%" y="-20%" width="140%" height="140%">
      <feDropShadow dx="0" dy="10" stdDeviation="12" flood-color="#0f172a" flood-opacity="0.18"/>
    </filter>
  </defs>

  <circle cx="320" cy="320" r="268" fill="#f8fffd" stroke="#73c9d4" stroke-width="12" filter="url(#softShadow)"/>
  <path d="M104 371c80-48 148-29 223 0 72 28 134 34 209-10v65c-82 46-154 39-231 10-76-30-128-42-201 4z" fill="url(#deepBlue)"/>
  <path d="M139 249c67-33 125-31 192-1 58 26 108 31 171 4" fill="none" stroke="#5bbbd2" stroke-width="15" stroke-linecap="round"/>
  <path d="M159 293c59-25 112-21 171 5 57 26 106 29 162 3" fill="none" stroke="#70cddd" stroke-width="13" stroke-linecap="round"/>

  <path d="M206 232c34 107 104 155 188 177 19 5 31-18 17-31-23-21-47-44-55-76-8-31-6-61-2-88 3-18-21-27-35-15-22 19-38 44-42 76-18-25-30-54-37-87-5-22-42-12-34 44z" fill="url(#blueTeal)" opacity="0.95"/>
  <path d="M434 232c-34 107-104 155-188 177-19 5-31-18-17-31 23-21 47-44 55-76 8-31 6-61 2-88-3-18 21-27 35-15 22 19 38 44 42 76 18-25 30-54 37-87 5-22 42-12 34 44z" fill="#69c4b5" opacity="0.95"/>

  <path d="M212 225h216l-108-94z" fill="#ffffff" stroke="url(#blueTeal)" stroke-width="13" stroke-linejoin="round"/>
  <path d="M239 242c48 17 96 17 144 0" fill="none" stroke="#5bbbd2" stroke-width="10" stroke-linecap="round"/>
  <path d="M297 201h18v18h-18zm28 0h18v18h-18zm-28 28h18v18h-18zm28 0h18v18h-18z" fill="#d4ad50"/>
  <path d="M320 126c19-31 66-12 58 26-5 24-31 43-58 67-27-24-53-43-58-67-8-38 39-57 58-26z" fill="#8bd1c3" stroke="#0b79bd" stroke-width="13" stroke-linejoin="round"/>

  <text x="320" y="486" text-anchor="middle" font-family="Arial, Helvetica, sans-serif" font-size="116" font-weight="800" fill="#0575b8">rodnam</text>
  <path d="M185 511h270a22 22 0 0 1 22 22v17H163v-17a22 22 0 0 1 22-22z" fill="url(#deepBlue)"/>
  <text x="320" y="544" text-anchor="middle" font-family="Arial, Helvetica, sans-serif" font-size="27" font-weight="700" fill="#ffffff" letter-spacing="2">FLOOD RELIEF &amp; RECOVERY</text>
  <path d="M217 464c0 34-27 62-60 62s-60-28-60-62c0-38 60-111 60-111s60 73 60 111z" fill="#42b9d5" stroke="#ffffff" stroke-width="10"/>
  <path d="M136 466l21-20 21 20v38h-42z" fill="#ffffff" opacity="0.95"/>
  <path d="M157 463c12-18 39-5 32 17-5 15-20 25-32 36-12-11-27-21-32-36-7-22 20-35 32-17z" fill="#56bba8"/>
</svg>
